<svg width="52" height="52" viewBox="0 0 52 52" version="1.1" xmlns="http://www.w3.org/2000/svg" xmlns:xlink="http://www.w3.org/1999/xlink">
<title>Rocket</title>
<desc>Created using Figma</desc>
<g id="Canvas" transform="translate(-1463 -442)">
<g id="Rocket">
<use xlink:href="#path0_fill" transform="translate(1463 442)" fill="#ed008c"/>
</g>
</g>
<defs>
<path id="path0_fill" fill-rule="evenodd" d="M 32.8414 33.5882C 32.8414 33.5882 54.1813 18.5402 51.8171 1.31665C 51.7651 0.936695 51.6363 0.688517 51.4773 0.522473C 51.3128 0.364702 51.0631 0.235295 50.6834 0.182705C 33.4599 -2.18031 18.4114 19.1589 18.4114 19.1589C 5.35695 17.6291 6.30807 20.1753 0.348627 34.1531C -0.79114 36.821 1.05849 37.7369 3.08467 36.9888C 5.10965 36.2413 9.58104 34.5909 9.58104 34.5909L 17.4095 42.4192C 17.4095 42.4192 15.7588 46.8899 15.0108 48.9161C 14.2629 50.9423 15.1783 52.7901 17.8466 51.652C 31.8249 45.6922 34.3705 46.6412 32.8414 33.5882ZM 35.8906 16.1075C 34.0839 14.2993 34.0839 11.3696 35.8918 9.56149C 37.6992 7.75392 40.6299 7.75392 42.4378 9.56149C 44.2457 11.3691 44.2457 14.2999 42.4378 16.1075C 40.6299 17.9162 37.6992 17.9162 35.8906 16.1075Z"/>
</defs>
</svg>
